<?xml version="1.0" encoding="UTF-8"?>
<svg id="Ebene_2" data-name="Ebene 2" xmlns="http://www.w3.org/2000/svg" viewBox="0 0 800 255.96">
  <defs>
    <style>
      .cls-1 {
        fill: #fff;
      }

      .cls-2 {
        fill: #024726;
      }

      .cls-3 {
        fill: #2d8639;
      }
    </style>
  </defs>
  <g id="Ebene_1-2" data-name="Ebene 1">
    <g>
      <rect class="cls-1" x="11.69" y="11.69" width="233.87" height="233.87"/>
      <rect class="cls-3" x="11.69" y="11.69" width="110.44" height="233.87" rx="24.56" ry="24.56"/>
      <rect class="cls-2" x="133.83" y="11.69" width="111.74" height="233.87" rx="24.56" ry="24.56"/>
      <path class="cls-1" d="M276.91,13.39h29.12c12.17,0,20.48,2.54,24.94,7.61,4.46,5.07,6.69,11,6.69,17.8,0,4.31-.81,7.95-2.44,10.92-1.63,2.97-4.24,5.97-7.84,9.01,6.9,2.39,11.79,5.91,14.65,10.55,2.87,4.65,4.3,9.61,4.3,14.89,0,9.19-3.14,16.36-9.43,21.48-6.29,5.13-15.13,7.69-26.54,7.69h-33.46V13.39ZM298.46,30.14v21.93h4.93c3.64,0,6.7-1.16,9.17-3.48,2.48-2.32,3.72-5.18,3.72-8.59,0-2.75-1.21-5.08-3.64-6.99-2.43-1.91-5.46-2.87-9.1-2.87h-5.08ZM298.46,69.04v27.56h7.72c11.81,0,17.71-4.33,17.71-12.98,0-4.68-1.44-8.28-4.31-10.8-2.88-2.52-6.99-3.78-12.33-3.78h-8.78Z"/>
      <path class="cls-1" d="M359.74,13.39h21.24v61.13c0,5.68,1.57,10.25,4.72,13.7,3.15,3.45,7.28,5.18,12.41,5.18,5.89,0,10.46-1.74,13.7-5.21,3.25-3.48,4.87-8.39,4.87-14.73V13.39h21.16v64.71c0,5.68-1.47,11.58-4.42,17.7-2.94,6.12-7.47,10.8-13.59,14.05-6.12,3.25-12.95,4.87-20.52,4.87-13.7,0-23.73-3.82-30.07-11.46-6.35-7.64-9.52-15.67-9.52-24.09V13.39Z"/>
      <path class="cls-1" d="M458.25,13.39h34.11c14.57,0,26.29,4.59,35.17,13.78,8.88,9.19,13.32,21.29,13.32,36.31s-4.58,27.15-13.74,36.24c-9.16,9.09-21.35,13.63-36.58,13.63h-32.28V13.39ZM479.95,32.27v61.74h8.53c8.83,0,16.09-2.41,21.77-7.23,5.68-4.82,8.53-12.87,8.53-24.13,0-6.55-1.37-12.35-4.11-17.4-2.74-5.05-6.71-8.48-11.91-10.28-5.2-1.8-10.16-2.7-14.88-2.7h-7.92Z"/>
      <path class="cls-1" d="M642.64,35.09l-14.31,13.4c-3-5.18-6.7-9.05-11.11-11.61-4.42-2.56-9.03-3.84-13.86-3.84-7.82,0-14.61,2.97-20.36,8.91-5.76,5.94-8.64,12.94-8.64,21.01,0,8.58,2.88,15.85,8.64,21.81,5.76,5.96,12.7,8.95,20.82,8.95,4.42,0,8.67-1.12,12.75-3.35,4.08-2.23,7.37-6.42,9.86-12.56h-23.68v-19.49h46.13v12.94c0,6.65-2.28,13.79-6.85,21.43-4.57,7.64-10.58,13.22-18.04,16.75-7.46,3.53-15,5.29-22.61,5.29-13.81,0-25.45-5-34.94-15-9.49-10-14.24-22.36-14.24-37.08,0-13.96,4.88-25.88,14.65-35.78,9.77-9.9,21.53-14.85,35.29-14.85,17.56,0,31.06,7.69,40.5,23.07Z"/>
      <polygon class="cls-1" points="665.1 13.39 721.36 13.39 721.36 33.18 686.64 33.18 686.64 53.36 721.36 53.36 721.36 72.85 686.64 72.85 686.64 93.55 721.36 93.55 721.36 113.35 665.1 113.35 665.1 13.39"/>
      <polygon class="cls-1" points="732.78 13.39 800 13.39 800 34.63 777.09 34.63 777.09 113.35 755.54 113.35 755.54 34.63 732.78 34.63 732.78 13.39"/>
      <path class="cls-1" d="M276.91,143.32h29.12c12.17,0,20.48,2.54,24.94,7.61,4.46,5.07,6.69,11,6.69,17.8,0,4.31-.81,7.95-2.44,10.92-1.63,2.97-4.24,5.97-7.84,9.01,6.9,2.39,11.79,5.91,14.65,10.55,2.87,4.65,4.3,9.61,4.3,14.89,0,9.19-3.14,16.36-9.43,21.48-6.29,5.13-15.13,7.69-26.54,7.69h-33.46v-99.96ZM298.46,160.07v21.93h4.93c3.64,0,6.7-1.16,9.17-3.48,2.48-2.32,3.72-5.18,3.72-8.6,0-2.75-1.21-5.08-3.64-6.99-2.43-1.91-5.46-2.86-9.1-2.86h-5.08ZM298.46,198.97v27.56h7.72c11.81,0,17.71-4.33,17.71-12.98,0-4.68-1.44-8.28-4.31-10.8-2.88-2.52-6.99-3.78-12.33-3.78h-8.78Z"/>
      <path class="cls-1" d="M359.74,143.32h21.24v61.13c0,5.68,1.57,10.25,4.72,13.7,3.15,3.45,7.28,5.18,12.41,5.18,5.89,0,10.46-1.74,13.7-5.21,3.25-3.48,4.87-8.39,4.87-14.73v-60.07h21.16v64.71c0,5.68-1.47,11.58-4.42,17.7-2.94,6.12-7.47,10.8-13.59,14.05-6.12,3.25-12.95,4.87-20.52,4.87-13.7,0-23.73-3.82-30.07-11.46-6.35-7.64-9.52-15.67-9.52-24.09v-65.78Z"/>
      <path class="cls-1" d="M458.25,143.32h34.11c14.57,0,26.29,4.59,35.17,13.78,8.88,9.19,13.32,21.29,13.32,36.31s-4.58,27.15-13.74,36.24c-9.16,9.09-21.35,13.63-36.58,13.63h-32.28v-99.96ZM479.95,162.2v61.74h8.53c8.83,0,16.09-2.41,21.77-7.23,5.68-4.82,8.53-12.87,8.53-24.13,0-6.55-1.37-12.34-4.11-17.4-2.74-5.05-6.71-8.48-11.91-10.28-5.2-1.8-10.16-2.7-14.88-2.7h-7.92Z"/>
      <path class="cls-1" d="M557.22,143.32h34.11c14.57,0,26.29,4.59,35.17,13.78,8.88,9.19,13.32,21.29,13.32,36.31s-4.58,27.15-13.74,36.24c-9.16,9.09-21.35,13.63-36.58,13.63h-32.28v-99.96ZM578.92,162.2v61.74h8.53c8.83,0,16.09-2.41,21.77-7.23,5.68-4.82,8.53-12.87,8.53-24.13,0-6.55-1.37-12.34-4.11-17.4-2.74-5.05-6.71-8.48-11.91-10.28-5.2-1.8-10.16-2.7-14.88-2.7h-7.92Z"/>
      <polygon class="cls-1" points="642.79 143.32 666.65 143.32 685.1 174.31 703.8 143.32 727.75 143.32 695.93 196.53 695.93 243.28 674.61 243.28 674.61 196.53 642.79 143.32"/>
      <path class="cls-1" d="M228.84,0H27.12C12.14,0,0,12.14,0,27.12v201.72c0,14.98,12.14,27.12,27.12,27.12h201.72c14.98,0,27.12-12.14,27.12-27.12V27.12c0-14.98-12.14-27.12-27.12-27.12ZM245.56,218.44c0,14.98-12.14,27.12-27.12,27.12H38.81c-14.98,0-27.12-12.14-27.12-27.12V38.81c0-14.98,12.14-27.12,27.12-27.12h179.63c14.98,0,27.12,12.14,27.12,27.12v179.63Z"/>
      <rect class="cls-1" x="122.78" y="5.2" width="11.69" height="245.56"/>
      <path class="cls-1" d="M128.63,93.55h-5.47c-8.45,16.79-22.88,29.19-40,33.45v3.26c17.12,4.26,31.55,16.66,40,33.45h5.47v-70.16Z"/>
      <path class="cls-1" d="M252.06,93.55h-5.47c-8.45,16.79-22.88,29.19-40,33.45v3.26c17.12,4.26,31.55,16.66,40,33.45h5.47v-70.16Z"/>
    </g>
  </g>
</svg>